<svg version="1.1" id="Layer_1" xmlns="http://www.w3.org/2000/svg" xmlns:xlink="http://www.w3.org/1999/xlink" x="0px" y="0px"
	 width="211.827px" height="32.378px" viewBox="0.817 1.306 211.827 32.378" enable-background="new 0.817 1.306 211.827 32.378"
	 xml:space="preserve">
<path fill="#6425DB" d="M58.715,10.036c0.395,0,0.658,0.22,0.658,0.614v20.124c0,0.395-0.174,0.658-0.482,0.792
	c-2.505,1.098-5.537,1.756-8.611,1.756c-5.977,0-10.062-2.854-10.062-9.886V10.65c0-0.395,0.219-0.614,0.658-0.614h3.823
	c0.397,0,0.615,0.22,0.615,0.614V23.35c0,4.13,1.846,5.403,4.966,5.403c1.449,0,2.987-0.175,3.997-0.527V10.65
	c0-0.395,0.221-0.614,0.615-0.614H58.715z M68.951,24.844c0,2.416,1.23,3.821,3.47,3.821c0.395,0,1.099-0.044,1.801-0.087
	c0.441,0,0.704,0.219,0.704,0.614v3.341c0,0.351-0.176,0.657-0.617,0.702c-0.744,0.045-1.667,0.087-2.327,0.087
	c-4.569,0-8.129-2.329-8.129-8.127V5.116c0-0.397,0.221-0.616,0.659-0.616h3.339c0.352,0,0.615,0.219,0.66,0.572l0.395,5.272h4.701
	c0.396,0,0.66,0.221,0.66,0.615v3.208c0,0.396-0.263,0.615-0.66,0.615h-4.657V24.844z M96.85,24.447
	c0,5.449-3.955,8.875-10.018,8.875s-10.017-3.426-10.017-8.875V18.56c0-5.536,3.954-9.05,10.017-9.05s10.018,3.514,10.018,9.05
	V24.447z M81.955,24.447c0,2.812,1.714,4.306,4.877,4.306c3.121,0,4.877-1.493,4.877-4.306V18.56c0-2.899-1.756-4.481-4.877-4.481
	c-3.163,0-4.877,1.582-4.877,4.481V24.447z M122.2,9.509c5.494,0,9.447,3.208,9.447,9.359v13.269c0,0.439-0.219,0.659-0.615,0.659
	h-3.822c-0.396,0-0.615-0.22-0.615-0.659V18.691c0-2.856-1.361-4.57-4.525-4.57c-1.449,0-2.725,0.352-3.867,1.099
	c0.352,1.054,0.57,2.241,0.57,3.56v13.356c0,0.439-0.219,0.659-0.656,0.659h-3.779c-0.398,0-0.66-0.22-0.66-0.659V18.691
	c0-3.207-1.492-4.613-4.349-4.613c-1.495,0-2.637,0.22-3.515,0.483v17.575c0,0.439-0.221,0.659-0.66,0.659h-3.778
	c-0.439,0-0.66-0.22-0.66-0.659V12.013c0-0.35,0.131-0.615,0.528-0.79c2.416-1.056,5.184-1.713,7.953-1.713
	c2.592,0,4.742,0.747,6.369,2.021C117.763,10.167,119.654,9.509,122.2,9.509z M144.519,9.509c5.451,0,9.139,2.724,9.139,8.918
	v12.831c0,0.351-0.174,0.613-0.48,0.746c-2.287,0.702-5.582,1.317-8.832,1.317c-5.098,0-9.799-1.846-9.799-7.337
	c0-4.789,4-7.03,9.621-7.03c1.451,0,3.076,0.176,4.395,0.354v-0.836c0-3.121-1.143-4.438-4.395-4.438
	c-2.197,0-4.219,0.571-5.621,1.407c-0.309,0.22-0.66,0.176-0.881-0.176l-1.758-2.681c-0.221-0.351-0.221-0.571,0-0.746
	C138.017,10.388,140.962,9.509,144.519,9.509z M144.345,28.885c1.449,0,3.119-0.264,4.217-0.526v-4.967
	c-1.186-0.173-2.898-0.35-4.262-0.35c-3.297,0-4.613,1.099-4.613,2.899C139.687,28.006,141.663,28.885,144.345,28.885z
	 M163.017,24.844c0,2.416,1.229,3.821,3.471,3.821c0.396,0,1.098-0.044,1.803-0.087c0.438,0,0.701,0.219,0.701,0.614v3.341
	c0,0.351-0.176,0.657-0.615,0.702c-0.746,0.045-1.67,0.087-2.328,0.087c-4.57,0-8.131-2.329-8.131-8.127V5.116
	c0-0.397,0.221-0.616,0.662-0.616h3.338c0.352,0,0.615,0.219,0.66,0.572l0.396,5.272h4.701c0.395,0,0.656,0.221,0.656,0.615v3.208
	c0,0.396-0.262,0.615-0.656,0.615h-4.658V24.844z M190.081,22.954c0,0.396-0.221,0.614-0.66,0.614h-13.357v1.23
	c0,2.681,1.844,4.043,4.658,4.043c2.727,0,4.57-0.922,6.197-2.021c0.305-0.221,0.656-0.176,0.877,0.132l1.801,2.416
	c0.264,0.308,0.221,0.66-0.131,0.923c-2.33,1.846-5.186,3.031-8.92,3.031c-4.965,0-9.621-2.724-9.621-8.567v-6.237
	c0-6.46,4.832-9.008,9.666-9.008c4.789,0,9.49,2.548,9.49,9.008V22.954z M185.115,18.473c0-3.208-2.064-4.481-4.523-4.481
	c-2.594,0-4.527,1.229-4.527,4.481v1.142h9.051V18.473z M207.304,2.04c0-0.439,0.219-0.66,0.658-0.66h3.779
	c0.439,0,0.66,0.221,0.66,0.66v28.954c0,0.396-0.135,0.616-0.484,0.749c-2.637,0.965-6.021,1.58-8.875,1.58
	c-5.801,0-10.064-2.986-10.064-9.665v-4.833c0-5.712,4.045-9.315,9.58-9.315c1.758,0,3.428,0.395,4.746,0.967V2.04z M198.12,23.701
	c0,3.778,1.889,5.141,5.053,5.141c1.496,0,3.076-0.221,4.131-0.616V15.178c-1.055-0.705-2.504-1.144-4.219-1.144
	c-3.162,0-4.965,1.45-4.965,4.79V23.701z M26.462,9.625H11.171c-5.575,0-10.111,4.537-10.111,10.112v3.834
	c0,5.576,4.536,10.112,10.111,10.112h15.292c5.577,0,10.114-4.536,10.114-10.112v-3.834C36.576,14.162,32.039,9.625,26.462,9.625z
	 M6.085,19.737c0-2.805,2.282-5.087,5.086-5.087h15.292c2.805,0,5.086,2.282,5.086,5.087v3.834c0,2.806-2.282,5.087-5.086,5.087
	H11.171c-2.804,0-5.086-2.281-5.086-5.087V19.737z M11.789,18.854c-1.389,0-2.52,1.13-2.52,2.52c0,1.388,1.13,2.518,2.52,2.518
	c1.388,0,2.517-1.13,2.517-2.518C14.305,19.984,13.177,18.854,11.789,18.854z M25.847,18.854c-1.388,0-2.519,1.13-2.519,2.52
	c0,1.388,1.13,2.518,2.519,2.518c1.389,0,2.519-1.13,2.519-2.518C28.366,19.984,27.236,18.854,25.847,18.854z"/>
</svg>