<svg width="750" height="256" viewBox="0 0 750 256" fill="none" xmlns="http://www.w3.org/2000/svg">
<g clip-path="url(#clip0)">
<g filter="url(#filter0_i)">
<path d="M297.184 155.94H343.546V167H280.631V157.039L324.356 98.958H281.29V87.752H341.349V97.3467L297.184 155.94ZM387.781 147.151L406.238 87.752H420.74L388.88 179.231C383.948 192.415 376.111 199.007 365.369 199.007L362.806 198.787L357.752 197.835V186.849L361.414 187.142C366.004 187.142 369.568 186.214 372.107 184.358C374.695 182.503 376.819 179.109 378.479 174.178L381.482 166.121L353.211 87.752H368.006L387.781 147.151ZM450.62 167H437.07V54.5H450.62V167ZM490.095 167H476.545V87.752H490.095V167ZM475.446 66.7314C475.446 64.5342 476.105 62.6787 477.424 61.165C478.791 59.6514 480.793 58.8945 483.43 58.8945C486.066 58.8945 488.068 59.6514 489.436 61.165C490.803 62.6787 491.486 64.5342 491.486 66.7314C491.486 68.9287 490.803 70.7598 489.436 72.2246C488.068 73.6895 486.066 74.4219 483.43 74.4219C480.793 74.4219 478.791 73.6895 477.424 72.2246C476.105 70.7598 475.446 68.9287 475.446 66.7314ZM533.231 68.5625V87.752H548.026V98.2256H533.231V147.371C533.231 150.545 533.891 152.938 535.209 154.549C536.527 156.111 538.773 156.893 541.947 156.893C543.51 156.893 545.658 156.6 548.393 156.014V167C544.828 167.977 541.361 168.465 537.992 168.465C531.938 168.465 527.372 166.634 524.296 162.972C521.22 159.31 519.682 154.109 519.682 147.371V98.2256H505.253V87.752H519.682V68.5625H533.231ZM581.642 167H568.092V87.752H581.642V167ZM566.993 66.7314C566.993 64.5342 567.652 62.6787 568.971 61.165C570.338 59.6514 572.34 58.8945 574.977 58.8945C577.613 58.8945 579.615 59.6514 580.982 61.165C582.35 62.6787 583.033 64.5342 583.033 66.7314C583.033 68.9287 582.35 70.7598 580.982 72.2246C579.615 73.6895 577.613 74.4219 574.977 74.4219C572.34 74.4219 570.338 73.6895 568.971 72.2246C567.652 70.7598 566.993 68.9287 566.993 66.7314ZM638.182 157.405C643.016 157.405 647.239 155.94 650.853 153.011C654.466 150.081 656.468 146.419 656.858 142.024H669.676C669.432 146.565 667.869 150.887 664.988 154.988C662.107 159.09 658.25 162.361 653.416 164.803C648.631 167.244 643.553 168.465 638.182 168.465C627.391 168.465 618.797 164.876 612.4 157.698C606.053 150.472 602.879 140.608 602.879 128.108V125.838C602.879 118.123 604.295 111.263 607.127 105.257C609.959 99.251 614.012 94.5879 619.285 91.2676C624.607 87.9473 630.882 86.2871 638.108 86.2871C646.995 86.2871 654.368 88.9482 660.228 94.2705C666.136 99.5928 669.285 106.502 669.676 114.998H656.858C656.468 109.871 654.515 105.672 650.999 102.4C647.532 99.0801 643.235 97.4199 638.108 97.4199C631.224 97.4199 625.877 99.9102 622.068 104.891C618.309 109.822 616.429 116.976 616.429 126.351V128.914C616.429 138.045 618.309 145.076 622.068 150.008C625.828 154.939 631.199 157.405 638.182 157.405ZM734.053 145.979C734.053 142.317 732.661 139.485 729.878 137.483C727.144 135.433 722.334 133.675 715.449 132.21C708.613 130.745 703.169 128.987 699.116 126.937C695.112 124.886 692.134 122.444 690.181 119.612C688.276 116.78 687.324 113.411 687.324 109.505C687.324 103.011 690.059 97.5176 695.527 93.0254C701.045 88.5332 708.076 86.2871 716.621 86.2871C725.605 86.2871 732.881 88.6064 738.447 93.2451C744.062 97.8838 746.87 103.816 746.87 111.043H733.247C733.247 107.332 731.66 104.134 728.486 101.448C725.361 98.7627 721.406 97.4199 716.621 97.4199C711.689 97.4199 707.832 98.4941 705.049 100.643C702.266 102.791 700.874 105.599 700.874 109.065C700.874 112.337 702.168 114.803 704.756 116.463C707.344 118.123 712.007 119.71 718.745 121.224C725.532 122.737 731.025 124.544 735.225 126.644C739.424 128.743 742.524 131.282 744.526 134.261C746.577 137.19 747.603 140.779 747.603 145.027C747.603 152.107 744.771 157.796 739.106 162.093C733.442 166.341 726.094 168.465 717.061 168.465C710.713 168.465 705.098 167.342 700.215 165.096C695.332 162.85 691.499 159.725 688.716 155.721C685.981 151.668 684.614 147.298 684.614 142.61H698.164C698.408 147.151 700.215 150.765 703.584 153.45C707.002 156.087 711.494 157.405 717.061 157.405C722.188 157.405 726.289 156.38 729.365 154.329C732.49 152.229 734.053 149.446 734.053 145.979Z" fill="black"/>
</g>
<path d="M297.184 155.94L296.385 155.339L295.178 156.94H297.184V155.94ZM343.546 155.94H344.546V154.94H343.546V155.94ZM343.546 167V168H344.546V167H343.546ZM280.631 167H279.631V168H280.631V167ZM280.631 157.039L279.832 156.438L279.631 156.705V157.039H280.631ZM324.356 98.958L325.155 99.5595L326.361 97.958H324.356V98.958ZM281.29 98.958H280.29V99.958H281.29V98.958ZM281.29 87.752V86.752H280.29V87.752H281.29ZM341.349 87.752H342.349V86.752H341.349V87.752ZM341.349 97.3467L342.147 97.9486L342.349 97.6813V97.3467H341.349ZM297.184 156.94H343.546V154.94H297.184V156.94ZM342.546 155.94V167H344.546V155.94H342.546ZM343.546 166H280.631V168H343.546V166ZM281.631 167V157.039H279.631V167H281.631ZM281.43 157.641L325.155 99.5595L323.558 98.3566L279.832 156.438L281.43 157.641ZM324.356 97.958H281.29V99.958H324.356V97.958ZM282.29 98.958V87.752H280.29V98.958H282.29ZM281.29 88.752H341.349V86.752H281.29V88.752ZM340.349 87.752V97.3467H342.349V87.752H340.349ZM340.55 96.7448L296.385 155.339L297.982 156.542L342.147 97.9486L340.55 96.7448ZM387.781 147.151L386.832 147.467L387.814 150.416L388.736 147.448L387.781 147.151ZM406.238 87.752V86.752H405.502L405.283 87.4552L406.238 87.752ZM420.74 87.752L421.685 88.0809L422.147 86.752H420.74V87.752ZM388.88 179.231L389.816 179.582L389.82 179.571L389.824 179.56L388.88 179.231ZM365.369 199.007L365.284 200.003L365.326 200.007H365.369V199.007ZM362.806 198.787L362.621 199.77L362.67 199.779L362.72 199.783L362.806 198.787ZM357.752 197.835H356.752V198.664L357.567 198.818L357.752 197.835ZM357.752 186.849L357.832 185.852L356.752 185.765V186.849H357.752ZM361.414 187.142L361.334 188.138L361.374 188.142H361.414V187.142ZM372.107 184.358L371.525 183.546L371.517 183.551L372.107 184.358ZM378.479 174.178L377.542 173.828L377.537 173.843L377.532 173.859L378.479 174.178ZM381.482 166.121L382.419 166.47L382.548 166.127L382.423 165.782L381.482 166.121ZM353.211 87.752V86.752H351.787L352.27 88.0913L353.211 87.752ZM368.006 87.752L368.955 87.4361L368.727 86.752H368.006V87.752ZM388.736 147.448L407.193 88.0487L405.283 87.4552L386.826 146.855L388.736 147.448ZM406.238 88.752H420.74V86.752H406.238V88.752ZM419.796 87.4231L387.936 178.903L389.824 179.56L421.685 88.0809L419.796 87.4231ZM387.943 178.881C385.516 185.369 382.406 190.146 378.66 193.298C374.931 196.434 370.517 198.007 365.369 198.007V200.007C370.963 200.007 375.839 198.284 379.947 194.828C384.038 191.388 387.312 186.277 389.816 179.582L387.943 178.881ZM365.455 198.01L362.891 197.791L362.72 199.783L365.284 200.003L365.455 198.01ZM362.991 197.804L357.937 196.852L357.567 198.818L362.621 199.77L362.991 197.804ZM358.752 197.835V186.849H356.752V197.835H358.752ZM357.672 187.845L361.334 188.138L361.494 186.145L357.832 185.852L357.672 187.845ZM361.414 188.142C366.123 188.142 369.925 187.192 372.697 185.166L371.517 183.551C369.212 185.236 365.885 186.142 361.414 186.142V188.142ZM372.69 185.171C375.526 183.138 377.739 179.512 379.427 174.497L377.532 173.859C375.9 178.707 373.865 181.868 371.525 183.546L372.69 185.171ZM379.417 174.527L382.419 166.47L380.545 165.772L377.542 173.828L379.417 174.527ZM382.423 165.782L354.152 87.4126L352.27 88.0913L380.542 166.46L382.423 165.782ZM353.211 88.752H368.006V86.752H353.211V88.752ZM367.057 88.0678L386.832 147.467L388.73 146.835L368.955 87.4361L367.057 88.0678ZM450.62 167V168H451.62V167H450.62ZM437.07 167H436.07V168H437.07V167ZM437.07 54.5V53.5H436.07V54.5H437.07ZM450.62 54.5H451.62V53.5H450.62V54.5ZM450.62 166H437.07V168H450.62V166ZM438.07 167V54.5H436.07V167H438.07ZM437.07 55.5H450.62V53.5H437.07V55.5ZM449.62 54.5V167H451.62V54.5H449.62ZM490.095 167V168H491.095V167H490.095ZM476.545 167H475.545V168H476.545V167ZM476.545 87.752V86.752H475.545V87.752H476.545ZM490.095 87.752H491.095V86.752H490.095V87.752ZM477.424 61.165L476.682 60.4948L476.676 60.5015L476.67 60.5083L477.424 61.165ZM477.424 72.2246L476.681 72.8936L476.687 72.9003L476.693 72.9069L477.424 72.2246ZM490.095 166H476.545V168H490.095V166ZM477.545 167V87.752H475.545V167H477.545ZM476.545 88.752H490.095V86.752H476.545V88.752ZM489.095 87.752V167H491.095V87.752H489.095ZM476.446 66.7314C476.446 64.751 477.034 63.1357 478.178 61.8218L476.67 60.5083C475.177 62.2217 474.446 64.3174 474.446 66.7314H476.446ZM478.166 61.8353C479.292 60.589 480.988 59.8945 483.43 59.8945V57.8945C480.598 57.8945 478.29 58.7138 476.682 60.4948L478.166 61.8353ZM483.43 59.8945C485.871 59.8945 487.568 60.589 488.693 61.8353L490.178 60.4948C488.569 58.7138 486.261 57.8945 483.43 57.8945V59.8945ZM488.693 61.8353C489.881 63.1503 490.486 64.761 490.486 66.7314H492.486C492.486 64.3073 491.724 62.2071 490.178 60.4948L488.693 61.8353ZM490.486 66.7314C490.486 68.702 489.882 70.2812 488.704 71.5423L490.167 72.9069C491.724 71.2383 492.486 69.1554 492.486 66.7314H490.486ZM488.704 71.5423C487.581 72.7459 485.881 73.4219 483.43 73.4219V75.4219C486.252 75.4219 488.556 74.633 490.167 72.9069L488.704 71.5423ZM483.43 73.4219C480.978 73.4219 479.278 72.7459 478.155 71.5423L476.693 72.9069C478.304 74.633 480.608 75.4219 483.43 75.4219V73.4219ZM478.167 71.5556C477.033 70.296 476.446 68.7123 476.446 66.7314H474.446C474.446 69.1452 475.178 71.2236 476.681 72.8936L478.167 71.5556ZM533.231 68.5625H534.231V67.5625H533.231V68.5625ZM533.231 87.752H532.231V88.752H533.231V87.752ZM548.026 87.752H549.026V86.752H548.026V87.752ZM548.026 98.2256V99.2256H549.026V98.2256H548.026ZM533.231 98.2256V97.2256H532.231V98.2256H533.231ZM535.209 154.549L534.435 155.182L534.44 155.188L534.445 155.194L535.209 154.549ZM548.393 156.014H549.393V154.777L548.183 155.036L548.393 156.014ZM548.393 167L548.657 167.964L549.393 167.763V167H548.393ZM519.682 98.2256H520.682V97.2256H519.682V98.2256ZM505.253 98.2256H504.253V99.2256H505.253V98.2256ZM505.253 87.752V86.752H504.253V87.752H505.253ZM519.682 87.752V88.752H520.682V87.752H519.682ZM519.682 68.5625V67.5625H518.682V68.5625H519.682ZM532.231 68.5625V87.752H534.231V68.5625H532.231ZM533.231 88.752H548.026V86.752H533.231V88.752ZM547.026 87.752V98.2256H549.026V87.752H547.026ZM548.026 97.2256H533.231V99.2256H548.026V97.2256ZM532.231 98.2256V147.371H534.231V98.2256H532.231ZM532.231 147.371C532.231 150.66 532.911 153.319 534.435 155.182L535.983 153.916C534.87 152.556 534.231 150.43 534.231 147.371H532.231ZM534.445 155.194C536.038 157.082 538.642 157.893 541.947 157.893V155.893C538.905 155.893 537.017 155.141 535.973 153.904L534.445 155.194ZM541.947 157.893C543.615 157.893 545.844 157.583 548.602 156.991L548.183 155.036C545.473 155.617 543.405 155.893 541.947 155.893V157.893ZM547.393 156.014V167H549.393V156.014H547.393ZM548.128 166.036C544.642 166.991 541.264 167.465 537.992 167.465V169.465C541.459 169.465 545.015 168.962 548.657 167.964L548.128 166.036ZM537.992 167.465C532.148 167.465 527.899 165.706 525.062 162.328L523.53 163.615C526.845 167.561 531.727 169.465 537.992 169.465V167.465ZM525.062 162.328C522.188 158.908 520.682 153.969 520.682 147.371H518.682C518.682 154.25 520.251 159.711 523.53 163.615L525.062 162.328ZM520.682 147.371V98.2256H518.682V147.371H520.682ZM519.682 97.2256H505.253V99.2256H519.682V97.2256ZM506.253 98.2256V87.752H504.253V98.2256H506.253ZM505.253 88.752H519.682V86.752H505.253V88.752ZM520.682 87.752V68.5625H518.682V87.752H520.682ZM519.682 69.5625H533.231V67.5625H519.682V69.5625ZM581.642 167V168H582.642V167H581.642ZM568.092 167H567.092V168H568.092V167ZM568.092 87.752V86.752H567.092V87.752H568.092ZM581.642 87.752H582.642V86.752H581.642V87.752ZM568.971 61.165L568.229 60.4948L568.223 60.5015L568.217 60.5083L568.971 61.165ZM568.971 72.2246L568.227 72.8936L568.233 72.9003L568.24 72.9069L568.971 72.2246ZM581.642 166H568.092V168H581.642V166ZM569.092 167V87.752H567.092V167H569.092ZM568.092 88.752H581.642V86.752H568.092V88.752ZM580.642 87.752V167H582.642V87.752H580.642ZM567.993 66.7314C567.993 64.751 568.58 63.1357 569.725 61.8218L568.217 60.5083C566.724 62.2217 565.993 64.3174 565.993 66.7314H567.993ZM569.713 61.8353C570.839 60.589 572.535 59.8945 574.977 59.8945V57.8945C572.145 57.8945 569.837 58.7138 568.229 60.4948L569.713 61.8353ZM574.977 59.8945C577.418 59.8945 579.115 60.589 580.24 61.8353L581.725 60.4948C580.116 58.7138 577.808 57.8945 574.977 57.8945V59.8945ZM580.24 61.8353C581.428 63.1503 582.033 64.761 582.033 66.7314H584.033C584.033 64.3073 583.271 62.2071 581.725 60.4948L580.24 61.8353ZM582.033 66.7314C582.033 68.702 581.428 70.2812 580.251 71.5423L581.713 72.9069C583.271 71.2383 584.033 69.1554 584.033 66.7314H582.033ZM580.251 71.5423C579.128 72.7459 577.428 73.4219 574.977 73.4219V75.4219C577.799 75.4219 580.102 74.633 581.713 72.9069L580.251 71.5423ZM574.977 73.4219C572.525 73.4219 570.825 72.7459 569.702 71.5423L568.24 72.9069C569.851 74.633 572.155 75.4219 574.977 75.4219V73.4219ZM569.714 71.5556C568.58 70.296 567.993 68.7123 567.993 66.7314H565.993C565.993 69.1452 566.724 71.2236 568.227 72.8936L569.714 71.5556ZM656.858 142.024V141.024H655.943L655.862 141.936L656.858 142.024ZM669.676 142.024L670.674 142.078L670.731 141.024H669.676V142.024ZM653.416 164.803L652.965 163.91L652.962 163.912L653.416 164.803ZM612.4 157.698L611.649 158.358L611.654 158.364L612.4 157.698ZM619.285 91.2676L618.756 90.4191L618.752 90.4213L619.285 91.2676ZM660.228 94.2705L659.555 95.0107L659.558 95.0135L660.228 94.2705ZM669.676 114.998V115.998H670.723L670.675 114.952L669.676 114.998ZM656.858 114.998L655.861 115.074L655.932 115.998H656.858V114.998ZM650.999 102.4L650.307 103.123L650.313 103.128L650.318 103.132L650.999 102.4ZM622.068 104.891L621.274 104.283L621.273 104.284L622.068 104.891ZM638.182 158.405C643.235 158.405 647.684 156.868 651.482 153.787L650.223 152.234C646.795 155.013 642.796 156.405 638.182 156.405V158.405ZM651.482 153.787C655.293 150.698 657.438 146.793 657.854 142.113L655.862 141.936C655.497 146.045 653.639 149.464 650.223 152.234L651.482 153.787ZM656.858 143.024H669.676V141.024H656.858V143.024ZM668.677 141.971C668.444 146.306 666.954 150.449 664.17 154.414L665.807 155.563C668.784 151.324 670.419 146.825 670.674 142.078L668.677 141.971ZM664.17 154.414C661.391 158.37 657.665 161.537 652.965 163.91L653.867 165.695C658.835 163.186 662.824 159.81 665.807 155.563L664.17 154.414ZM652.962 163.912C648.317 166.282 643.395 167.465 638.182 167.465V169.465C643.711 169.465 648.945 168.207 653.87 165.693L652.962 163.912ZM638.182 167.465C627.637 167.465 619.329 163.97 613.147 157.033L611.654 158.364C618.264 165.782 627.144 169.465 638.182 169.465V167.465ZM613.152 157.038C607.007 150.043 603.879 140.44 603.879 128.108H601.879C601.879 140.777 605.098 150.9 611.649 158.358L613.152 157.038ZM603.879 128.108V125.838H601.879V128.108H603.879ZM603.879 125.838C603.879 118.247 605.272 111.536 608.031 105.683L606.222 104.83C603.318 110.99 601.879 117.999 601.879 125.838H603.879ZM608.031 105.683C610.788 99.8381 614.717 95.3258 619.818 92.1138L618.752 90.4213C613.307 93.85 609.13 98.6638 606.222 104.83L608.031 105.683ZM619.814 92.116C624.955 88.9091 631.04 87.2871 638.108 87.2871V85.2871C630.724 85.2871 624.26 86.9855 618.756 90.4191L619.814 92.116ZM638.108 87.2871C646.779 87.2871 653.903 89.8765 659.555 95.0107L660.9 93.5303C654.834 88.02 647.211 85.2871 638.108 85.2871V87.2871ZM659.558 95.0135C665.253 100.143 668.298 106.794 668.677 115.044L670.675 114.952C670.273 106.21 667.019 99.0421 660.897 93.5275L659.558 95.0135ZM669.676 113.998H656.858V115.998H669.676V113.998ZM657.856 114.922C657.447 109.564 655.394 105.124 651.68 101.668L650.318 103.132C653.636 106.22 655.488 110.178 655.861 115.074L657.856 114.922ZM651.691 101.678C648.024 98.1667 643.474 96.4199 638.108 96.4199V98.4199C642.997 98.4199 647.04 99.9935 650.307 103.123L651.691 101.678ZM638.108 96.4199C630.947 96.4199 625.292 99.0286 621.274 104.283L622.863 105.498C626.462 100.792 631.5 98.4199 638.108 98.4199V96.4199ZM621.273 104.284C617.328 109.459 615.429 116.863 615.429 126.351H617.429C617.429 117.088 619.289 110.185 622.864 105.497L621.273 104.284ZM615.429 126.351V128.914H617.429V126.351H615.429ZM615.429 128.914C615.429 138.165 617.331 145.443 621.273 150.614L622.864 149.402C619.286 144.709 617.429 137.925 617.429 128.914H615.429ZM621.273 150.614C625.248 155.828 630.932 158.405 638.182 158.405V156.405C631.466 156.405 626.409 154.051 622.864 149.402L621.273 150.614ZM729.878 137.483L729.278 138.283L729.286 138.289L729.294 138.295L729.878 137.483ZM715.449 132.21L715.24 133.188L715.241 133.188L715.449 132.21ZM699.116 126.937L698.66 127.827L698.665 127.829L699.116 126.937ZM690.181 119.612L689.351 120.17L689.357 120.18L690.181 119.612ZM695.527 93.0254L694.896 92.2499L694.893 92.2527L695.527 93.0254ZM738.447 93.2451L737.807 94.0133L737.81 94.0161L738.447 93.2451ZM746.87 111.043V112.043H747.87V111.043H746.87ZM733.247 111.043H732.247V112.043H733.247V111.043ZM728.486 101.448L727.835 102.207L727.84 102.212L728.486 101.448ZM718.745 121.224L718.526 122.199L718.527 122.2L718.745 121.224ZM744.526 134.261L743.696 134.819L743.702 134.826L743.707 134.834L744.526 134.261ZM739.106 162.093L739.706 162.893L739.711 162.889L739.106 162.093ZM688.716 155.721L687.887 156.28L687.895 156.291L688.716 155.721ZM684.614 142.61V141.61H683.614V142.61H684.614ZM698.164 142.61L699.163 142.557L699.112 141.61H698.164V142.61ZM703.584 153.45L702.961 154.232L702.967 154.237L702.973 154.242L703.584 153.45ZM729.365 154.329L729.92 155.161L729.923 155.159L729.365 154.329ZM735.053 145.979C735.053 142.021 733.526 138.876 730.462 136.672L729.294 138.295C731.796 140.095 733.053 142.613 733.053 145.979H735.053ZM730.478 136.683C727.559 134.494 722.565 132.702 715.657 131.232L715.241 133.188C722.103 134.648 726.728 136.371 729.278 138.283L730.478 136.683ZM715.659 131.232C708.867 129.777 703.514 128.041 699.568 126.044L698.665 127.829C702.824 129.933 708.36 131.713 715.24 133.188L715.659 131.232ZM699.572 126.046C695.672 124.049 692.839 121.705 691.004 119.045L689.357 120.18C691.429 123.184 694.553 125.723 698.66 127.827L699.572 126.046ZM691.011 119.054C689.233 116.41 688.324 113.242 688.324 109.505H686.324C686.324 113.58 687.32 117.15 689.351 120.17L691.011 119.054ZM688.324 109.505C688.324 103.339 690.901 98.1198 696.162 93.7981L694.893 92.2527C689.216 96.9154 686.324 102.682 686.324 109.505H688.324ZM696.159 93.8009C701.464 89.4816 708.258 87.2871 716.621 87.2871V85.2871C707.894 85.2871 700.626 87.5848 694.896 92.2499L696.159 93.8009ZM716.621 87.2871C725.429 87.2871 732.46 89.5577 737.807 94.0133L739.087 92.4769C733.301 87.6552 725.782 85.2871 716.621 85.2871V87.2871ZM737.81 94.0161C743.198 98.4665 745.87 104.117 745.87 111.043H747.87C747.87 103.515 744.927 97.3011 739.084 92.4742L737.81 94.0161ZM746.87 110.043H733.247V112.043H746.87V110.043ZM734.247 111.043C734.247 107 732.5 103.535 729.132 100.685L727.84 102.212C730.82 104.733 732.247 107.664 732.247 111.043H734.247ZM729.138 100.69C725.803 97.8237 721.605 96.4199 716.621 96.4199V98.4199C721.208 98.4199 724.92 99.7017 727.835 102.207L729.138 100.69ZM716.621 96.4199C711.555 96.4199 707.454 97.5224 704.438 99.851L705.66 101.434C708.21 99.4659 711.823 98.4199 716.621 98.4199V96.4199ZM704.438 99.851C701.413 102.186 699.874 105.284 699.874 109.065H701.874C701.874 105.914 703.118 103.396 705.66 101.434L704.438 99.851ZM699.874 109.065C699.874 112.651 701.32 115.447 704.216 117.305L705.296 115.621C703.016 114.159 701.874 112.022 701.874 109.065H699.874ZM704.216 117.305C706.964 119.068 711.78 120.684 718.526 122.199L718.964 120.248C712.234 118.736 707.723 117.178 705.296 115.621L704.216 117.305ZM718.527 122.2C725.269 123.703 730.677 125.488 734.777 127.538L735.672 125.749C731.374 123.6 725.795 121.771 718.963 120.248L718.527 122.2ZM734.777 127.538C738.868 129.583 741.816 132.021 743.696 134.819L745.356 133.703C743.233 130.543 739.979 127.903 735.672 125.749L734.777 127.538ZM743.707 134.834C745.619 137.566 746.603 140.945 746.603 145.027H748.603C748.603 140.614 747.535 136.815 745.346 133.687L743.707 134.834ZM746.603 145.027C746.603 151.793 743.918 157.187 738.502 161.296L739.711 162.889C745.623 158.404 748.603 152.422 748.603 145.027H746.603ZM738.506 161.293C733.058 165.379 725.938 167.465 717.061 167.465V169.465C726.25 169.465 733.827 167.303 739.706 162.893L738.506 161.293ZM717.061 167.465C710.831 167.465 705.363 166.363 700.633 164.187L699.797 166.004C704.832 168.321 710.594 169.465 717.061 169.465V167.465ZM700.633 164.187C695.895 162.008 692.208 158.993 689.537 155.15L687.895 156.291C690.79 160.457 694.769 163.691 699.797 166.004L700.633 164.187ZM689.545 155.161C686.917 151.266 685.614 147.09 685.614 142.61H683.614C683.614 147.506 685.046 152.07 687.887 156.28L689.545 155.161ZM684.614 143.61H698.164V141.61H684.614V143.61ZM697.166 142.664C697.424 147.472 699.355 151.358 702.961 154.232L704.207 152.668C701.075 150.172 699.392 146.83 699.163 142.557L697.166 142.664ZM702.973 154.242C706.611 157.048 711.338 158.405 717.061 158.405V156.405C711.651 156.405 707.393 155.125 704.195 152.658L702.973 154.242ZM717.061 158.405C722.311 158.405 726.627 157.356 729.92 155.161L728.811 153.497C725.951 155.404 722.064 156.405 717.061 156.405V158.405ZM729.923 155.159C733.296 152.893 735.053 149.812 735.053 145.979H733.053C733.053 149.081 731.684 151.566 728.808 153.499L729.923 155.159Z" fill="black"/>
<g clip-path="url(#clip1)">
<circle cx="42.65" cy="42.65" r="42.65" fill="#FED10A"/>
<circle cx="212.65" cy="42.65" r="42.65" fill="#399DBD"/>
<circle cx="127.65" cy="42.65" r="42.65" fill="#F27039"/>
<circle cx="43.65" cy="212.65" r="42.65" fill="#399DBD"/>
<circle cx="128.65" cy="212.65" r="42.65" fill="#F27039"/>
<circle cx="213.65" cy="212.65" r="42.65" fill="#FED10A"/>
<path d="M73.379 182.621L117.993 170.667L85.3334 138.007L73.379 182.621ZM183.494 72.5061L138.88 84.4604L171.54 117.12L183.494 72.5061ZM101.663 159.994L160.866 100.79L155.21 95.1335L96.0064 154.337L101.663 159.994Z" fill="#663399"/>
</g>
</g>
<defs>
<filter id="filter0_i" x="280.631" y="54.5" width="466.972" height="148.507" filterUnits="userSpaceOnUse" color-interpolation-filters="sRGB">
<feFlood flood-opacity="0" result="BackgroundImageFix"/>
<feBlend mode="normal" in="SourceGraphic" in2="BackgroundImageFix" result="shape"/>
<feColorMatrix in="SourceAlpha" type="matrix" values="0 0 0 0 0 0 0 0 0 0 0 0 0 0 0 0 0 0 127 0" result="hardAlpha"/>
<feOffset dy="4"/>
<feGaussianBlur stdDeviation="2"/>
<feComposite in2="hardAlpha" operator="arithmetic" k2="-1" k3="1"/>
<feColorMatrix type="matrix" values="0 0 0 0 0 0 0 0 0 0 0 0 0 0 0 0 0 0 0.25 0"/>
<feBlend mode="normal" in2="shape" result="effect1_innerShadow"/>
</filter>
<clipPath id="clip0">
<rect width="750" height="256" fill="white"/>
</clipPath>
<clipPath id="clip1">
<rect width="256" height="256" fill="white"/>
</clipPath>
</defs>
</svg>
